<svg viewBox="0 0 552 628" version="1.1" xmlns="http://www.w3.org/2000/svg"><path fill="#000000" stroke="#000000" stroke-width="4" opacity="1" d="M 436.5 17 L 471.5 18 L 475.5 19 L 483.5 22 L 498.5 31 L 512.5 35 Q 521.3 38.3 527 44.5 Q 535.8 55.2 541 69.5 L 546 95.5 L 546 119.5 L 544 129.5 L 544 142.5 L 543 143.5 L 542 156.5 Q 534.8 172.3 521.5 182 Q 507.7 194.7 489.5 203 L 466.5 211 L 432.5 217 L 427 219 L 426 225.5 L 430 231.5 L 433 241.5 L 453 283.5 L 455 291.5 L 465 315.5 L 467 326.5 L 474 348.5 L 474 356.5 L 475 357.5 L 476 373.5 L 477 374.5 L 477 395.5 L 474 404.5 L 474 416.5 L 472 423.5 L 471 440.5 L 469 446.5 L 469 455.5 L 465 470.5 L 462 490.5 L 453 506.5 L 450 516.5 Q 444 522.5 441 531.5 L 406.5 578 L 393.5 589 L 363.5 604 L 333.5 613 Q 320 614 309.5 618 L 290.5 618 L 279.5 616 L 256.5 615 L 231.5 610 L 199.5 602 L 178.5 594 L 165.5 591 Q 149.5 584 136.5 574 L 110 548.5 L 90 524.5 Q 81.6 507.9 70 494.5 L 55 466.5 L 54 460.5 L 49 450.5 L 44 435.5 L 40 419.5 L 40 413.5 L 35 387.5 L 35 358.5 L 38 345.5 L 38 336.5 L 44 310.5 L 52 289.5 L 64 265.5 L 74 250.5 L 77 244.5 L 77 241.5 L 72.5 238 L 61.5 238 L 53.5 236 Q 41.8 231.2 34 222.5 Q 24.8 212.2 20 197.5 L 17 182.5 L 17 156.5 L 18 155.5 L 18 148.5 L 19 147.5 L 23 113.5 L 29 94.5 L 43 71.5 L 63.5 51 L 94 25.5 L 95.5 23 Q 102 18 115.5 20 L 116.5 21 L 153.5 22 Q 166.8 26.8 174 37.5 L 184 51.5 L 195 74.5 L 202 102.5 L 203 115.5 L 204 116.5 L 204 126.5 L 201 138.5 L 201 148.5 Q 204 154 214.5 152 L 215.5 151 L 223.5 151 L 224.5 152 L 234.5 152 L 235.5 153 L 250.5 153 L 263.5 156 L 283.5 156 L 284.5 155 L 298.5 155 L 323.5 160 L 333.5 164 L 338.5 164 L 341 161.5 L 341 152.5 L 340 151.5 L 339 135.5 L 340 134.5 L 340 121.5 L 341 120.5 L 342 109.5 L 348 94.5 L 350 85.5 L 357 73.5 L 357 70.5 L 361 61.5 L 373.5 44 L 387.5 33 L 401.5 26 L 409.5 23 L 418.5 22 L 436.5 17 Z M 452 35 L 451 36 L 429 36 L 409 40 L 395 47 L 383 56 L 378 63 L 366 88 L 357 115 L 353 136 L 354 160 L 358 168 Q 364 173 373 176 L 381 175 L 388 165 L 394 144 L 403 122 L 418 101 L 425 95 L 431 92 Q 435 93 437 91 L 447 92 L 459 97 L 466 106 L 469 112 L 472 124 L 470 151 Q 468 161 462 168 L 455 175 L 439 181 L 424 189 Q 418 191 419 197 L 422 198 L 430 198 L 460 192 Q 474 184 492 180 Q 503 176 511 168 L 523 155 L 528 145 L 530 137 L 530 127 L 534 109 L 534 96 L 531 83 L 527 74 L 517 59 L 511 54 Q 505 53 504 55 Q 496 56 493 53 L 481 41 L 477 39 L 466 36 L 452 35 Z M 113 44 L 93 51 L 75 65 Q 61 78 50 94 L 41 111 L 37 126 L 36 140 L 32 161 L 32 183 L 31 184 L 32 196 L 37 204 Q 45 215 60 219 L 66 219 L 85 214 L 95 214 Q 104 212 110 207 Q 114 205 114 200 L 90 180 Q 79 170 74 156 L 69 128 L 70 108 L 76 94 Q 80 87 90 85 L 106 86 L 112 88 Q 125 93 135 102 L 143 114 L 146 127 L 146 139 L 138 169 Q 136 177 141 179 L 146 178 L 155 171 L 178 159 Q 184 153 187 143 L 188 132 L 189 131 L 189 120 L 190 119 L 188 99 L 186 92 L 178 74 L 165 56 L 161 51 L 153 51 L 137 44 L 113 44 Z M 90 105 L 88 106 Q 81 110 80 119 L 82 141 L 91 159 L 109 174 L 117 178 L 123 178 L 126 174 L 128 158 L 133 138 L 132 128 L 129 122 Q 121 111 107 106 Q 100 103 90 105 Z M 434 111 L 430 113 Q 407 133 398 168 Q 397 176 399 179 L 402 180 L 410 179 L 433 164 Q 444 163 452 158 Q 460 153 462 143 L 461 130 L 458 121 Q 451 110 434 111 Z M 211 170 L 200 172 L 192 176 Q 183 182 178 193 Q 163 208 145 219 L 118 230 L 106 237 L 92 255 L 74 285 L 59 318 L 52 343 L 52 349 L 50 356 L 50 366 L 49 367 L 49 386 L 48 387 L 49 389 L 50 408 L 62 458 Q 68 468 71 483 L 93 518 L 130 553 L 154 569 L 196 584 L 209 586 L 229 592 L 235 592 L 246 595 L 260 596 L 261 597 L 269 597 L 270 596 L 277 596 L 285 598 L 296 598 L 297 599 L 309 599 L 332 593 L 372 579 L 389 569 Q 421 538 442 496 L 450 473 L 454 456 L 457 430 L 458 429 L 458 421 L 461 409 L 462 394 L 463 393 L 462 355 L 453 322 L 431 265 L 420 247 L 408 223 L 401 216 Q 370 205 347 187 L 322 179 L 309 178 L 308 177 L 301 178 L 296 186 L 293 188 L 290 192 Q 289 206 297 213 L 313 226 Q 313 229 311 230 Q 298 230 293 223 Q 286 217 283 208 L 279 203 L 276 203 L 269 212 L 262 226 L 252 235 L 243 236 L 239 232 L 240 228 L 254 213 L 260 200 Q 261 194 259 193 L 254 196 L 252 199 Q 241 213 226 223 L 196 239 Q 189 240 187 238 L 186 236 Q 185 230 188 229 L 194 224 Q 207 219 218 211 L 241 188 L 245 182 L 245 178 Q 239 172 231 170 L 211 170 Z "/><path fill="#000000" stroke="#000000" stroke-width="4" opacity="1" d="M 200.5 281 Q 213 280 217 287.5 L 222 299.5 L 223 312.5 L 225 318.5 L 225 326.5 Q 219.3 340.8 208.5 350 L 200.5 353 L 195.5 353 Q 188.3 351.2 185 345.5 L 179 330.5 L 179 318.5 L 183 300.5 Q 187.3 289.8 195.5 283 L 200.5 281 Z "/><path fill="#000000" stroke="#000000" stroke-width="4" opacity="1" d="M 298.5 286 Q 310.1 286.4 315 293.5 L 320 304.5 L 321 324.5 Q 318.8 325.7 320 330.5 L 315 342.5 L 305.5 353 L 296.5 358 L 288.5 358 Q 281.3 356.2 278 350.5 L 273 338.5 L 273 326.5 L 274 325.5 L 275 312.5 L 282 296 L 292.5 288 L 298.5 286 Z "/><path fill="#000000" stroke="#000000" stroke-width="4" opacity="1" d="M 249.5 400 L 259.5 400 Q 267.7 406.3 280.5 408 L 296 418.5 L 302 429.5 L 303 443.5 Q 301.5 450.4 296.5 454 L 271.5 464 L 267 467.5 L 266 475.5 L 268 481.5 L 268 500.5 L 269 504.5 Q 272.7 513.3 280.5 518 L 294.5 524 L 309.5 524 L 320.5 522 L 329.5 518 Q 342.2 511.2 351 500.5 L 365.5 473 L 367.5 472 L 371 474.5 L 373 480.5 L 373 486.5 L 360 518.5 L 352.5 527 Q 341.1 535.6 326.5 541 L 317.5 543 L 292.5 543 L 282.5 539 L 270 527.5 L 260.5 513 Q 255 512 254 515.5 Q 248.1 528.1 237.5 536 L 228.5 542 L 208.5 548 L 185.5 548 L 184.5 547 L 172.5 547 L 165.5 545 L 150 535.5 Q 144.5 530 142 521.5 Q 140.9 510.6 137 502.5 L 136 492.5 L 138.5 489 L 141.5 489 L 146 493.5 L 148 498.5 L 150 512.5 L 155.5 519 L 175.5 528 L 205.5 529 Q 228 524 240 508.5 L 246 495.5 L 248 475.5 L 245.5 471 L 243.5 470 L 213.5 470 L 203 461.5 L 198 448.5 L 198 438.5 Q 201.7 424.2 211.5 416 L 220.5 411 L 232.5 408 L 242.5 402 L 249.5 400 Z "/></svg>